# xmcd CD database file
#
# Track frame offsets:
#	150
#	33348
#	57763
#	97704
#	110584
#	132402
#	171632
#	192007
#	228836
#	253258
#	285020
#	300178
#
# Disc length: 4367 seconds
#
# Revision: 2
# Processed by: cddbd v1.4b41PL1 Copyright (c) Steve Scherf et al.
# Submitted via: Feurio! 1.50.2ß - http://www.feurio.com
#
DISCID=93110d0c
DTITLE=BOB CURNOW BIG BAND - plays   Metheny/Mays
DYEAR=1900
DGENRE=
TTITLE0=It`s just talk
TTITLE1=Always and forever   (Bobby Shew)
TTITLE2=The first circle
TTITLE3=Letter from home   (Wayne Bergeron)
TTITLE4=Are we there yet?
TTITLE5=If I could
TTITLE6=See the world
TTITLE7=Minuano   (Boby Shew)
TTITLE8=Dream of the return   (Wayne Bergeron)
TTITLE9=Every summer night   (Wayne Bergeron-Picolo)
TTITLE10=In her familiy
TTITLE11=Have you heard   (Don Rader)
EXTD=
EXTT0=
EXTT1=
EXTT2=
EXTT3=
EXTT4=
EXTT5=
EXTT6=
EXTT7=
EXTT8=
EXTT9=
EXTT10=
EXTT11=
PLAYORDER=
